<svg xmlns="http://www.w3.org/2000/svg" width="802" height="153" viewBox="0 0 802 153">
  <rect width="802" height="153" rx="6" fill="#0d1117"/>
  <text x="40" y="17" fill="#8b949e" font-size="10" font-family="monospace">Mar</text>
  <text x="96" y="17" fill="#8b949e" font-size="10" font-family="monospace">Apr</text>
  <text x="152" y="17" fill="#8b949e" font-size="10" font-family="monospace">May</text>
  <text x="222" y="17" fill="#8b949e" font-size="10" font-family="monospace">Jun</text>
  <text x="278" y="17" fill="#8b949e" font-size="10" font-family="monospace">Jul</text>
  <text x="334" y="17" fill="#8b949e" font-size="10" font-family="monospace">Aug</text>
  <text x="404" y="17" fill="#8b949e" font-size="10" font-family="monospace">Sep</text>
  <text x="460" y="17" fill="#8b949e" font-size="10" font-family="monospace">Oct</text>
  <text x="516" y="17" fill="#8b949e" font-size="10" font-family="monospace">Nov</text>
  <text x="586" y="17" fill="#8b949e" font-size="10" font-family="monospace">Dec</text>
  <text x="642" y="17" fill="#8b949e" font-size="10" font-family="monospace">Jan</text>
  <text x="712" y="17" fill="#8b949e" font-size="10" font-family="monospace">Feb</text>
  <text x="768" y="17" fill="#8b949e" font-size="10" font-family="monospace">Mar</text>
  <text x="10" y="35" fill="#8b949e" font-size="9" font-family="monospace">Mon</text>
  <text x="10" y="63" fill="#8b949e" font-size="9" font-family="monospace">Wed</text>
  <text x="10" y="91" fill="#8b949e" font-size="9" font-family="monospace">Fri</text>
  <rect x="40" y="25" width="11" height="11" rx="2" fill="#161b22">
    <title>Mar 02, 2025: No commits</title>
  </rect>
  <rect x="40" y="39" width="11" height="11" rx="2" fill="#161b22">
    <title>Mar 03, 2025: No commits</title>
  </rect>
  <rect x="40" y="53" width="11" height="11" rx="2" fill="#161b22">
    <title>Mar 04, 2025: No commits</title>
  </rect>
  <rect x="40" y="67" width="11" height="11" rx="2" fill="#161b22">
    <title>Mar 05, 2025: No commits</title>
  </rect>
  <rect x="40" y="81" width="11" height="11" rx="2" fill="#161b22">
    <title>Mar 06, 2025: No commits</title>
  </rect>
  <rect x="40" y="95" width="11" height="11" rx="2" fill="#161b22">
    <title>Mar 07, 2025: No commits</title>
  </rect>
  <rect x="40" y="109" width="11" height="11" rx="2" fill="#161b22">
    <title>Mar 08, 2025: No commits</title>
  </rect>
  <rect x="54" y="25" width="11" height="11" rx="2" fill="#161b22">
    <title>Mar 09, 2025: No commits</title>
  </rect>
  <rect x="54" y="39" width="11" height="11" rx="2" fill="#161b22">
    <title>Mar 10, 2025: No commits</title>
  </rect>
  <rect x="54" y="53" width="11" height="11" rx="2" fill="#161b22">
    <title>Mar 11, 2025: No commits</title>
  </rect>
  <rect x="54" y="67" width="11" height="11" rx="2" fill="#161b22">
    <title>Mar 12, 2025: No commits</title>
  </rect>
  <rect x="54" y="81" width="11" height="11" rx="2" fill="#161b22">
    <title>Mar 13, 2025: No commits</title>
  </rect>
  <rect x="54" y="95" width="11" height="11" rx="2" fill="#161b22">
    <title>Mar 14, 2025: No commits</title>
  </rect>
  <rect x="54" y="109" width="11" height="11" rx="2" fill="#161b22">
    <title>Mar 15, 2025: No commits</title>
  </rect>
  <rect x="68" y="25" width="11" height="11" rx="2" fill="#161b22">
    <title>Mar 16, 2025: No commits</title>
  </rect>
  <rect x="68" y="39" width="11" height="11" rx="2" fill="#161b22">
    <title>Mar 17, 2025: No commits</title>
  </rect>
  <rect x="68" y="53" width="11" height="11" rx="2" fill="#161b22">
    <title>Mar 18, 2025: No commits</title>
  </rect>
  <rect x="68" y="67" width="11" height="11" rx="2" fill="#161b22">
    <title>Mar 19, 2025: No commits</title>
  </rect>
  <rect x="68" y="81" width="11" height="11" rx="2" fill="#161b22">
    <title>Mar 20, 2025: No commits</title>
  </rect>
  <rect x="68" y="95" width="11" height="11" rx="2" fill="#161b22">
    <title>Mar 21, 2025: No commits</title>
  </rect>
  <rect x="68" y="109" width="11" height="11" rx="2" fill="#161b22">
    <title>Mar 22, 2025: No commits</title>
  </rect>
  <rect x="82" y="25" width="11" height="11" rx="2" fill="#161b22">
    <title>Mar 23, 2025: No commits</title>
  </rect>
  <rect x="82" y="39" width="11" height="11" rx="2" fill="#161b22">
    <title>Mar 24, 2025: No commits</title>
  </rect>
  <rect x="82" y="53" width="11" height="11" rx="2" fill="#161b22">
    <title>Mar 25, 2025: No commits</title>
  </rect>
  <rect x="82" y="67" width="11" height="11" rx="2" fill="#161b22">
    <title>Mar 26, 2025: No commits</title>
  </rect>
  <rect x="82" y="81" width="11" height="11" rx="2" fill="#161b22">
    <title>Mar 27, 2025: No commits</title>
  </rect>
  <rect x="82" y="95" width="11" height="11" rx="2" fill="#161b22">
    <title>Mar 28, 2025: No commits</title>
  </rect>
  <rect x="82" y="109" width="11" height="11" rx="2" fill="#161b22">
    <title>Mar 29, 2025: No commits</title>
  </rect>
  <rect x="96" y="25" width="11" height="11" rx="2" fill="#161b22">
    <title>Mar 30, 2025: No commits</title>
  </rect>
  <rect x="96" y="39" width="11" height="11" rx="2" fill="#161b22">
    <title>Mar 31, 2025: No commits</title>
  </rect>
  <rect x="96" y="53" width="11" height="11" rx="2" fill="#161b22">
    <title>Apr 01, 2025: No commits</title>
  </rect>
  <rect x="96" y="67" width="11" height="11" rx="2" fill="#161b22">
    <title>Apr 02, 2025: No commits</title>
  </rect>
  <rect x="96" y="81" width="11" height="11" rx="2" fill="#161b22">
    <title>Apr 03, 2025: No commits</title>
  </rect>
  <rect x="96" y="95" width="11" height="11" rx="2" fill="#161b22">
    <title>Apr 04, 2025: No commits</title>
  </rect>
  <rect x="96" y="109" width="11" height="11" rx="2" fill="#161b22">
    <title>Apr 05, 2025: No commits</title>
  </rect>
  <rect x="110" y="25" width="11" height="11" rx="2" fill="#161b22">
    <title>Apr 06, 2025: No commits</title>
  </rect>
  <rect x="110" y="39" width="11" height="11" rx="2" fill="#161b22">
    <title>Apr 07, 2025: No commits</title>
  </rect>
  <rect x="110" y="53" width="11" height="11" rx="2" fill="#161b22">
    <title>Apr 08, 2025: No commits</title>
  </rect>
  <rect x="110" y="67" width="11" height="11" rx="2" fill="#161b22">
    <title>Apr 09, 2025: No commits</title>
  </rect>
  <rect x="110" y="81" width="11" height="11" rx="2" fill="#161b22">
    <title>Apr 10, 2025: No commits</title>
  </rect>
  <rect x="110" y="95" width="11" height="11" rx="2" fill="#161b22">
    <title>Apr 11, 2025: No commits</title>
  </rect>
  <rect x="110" y="109" width="11" height="11" rx="2" fill="#161b22">
    <title>Apr 12, 2025: No commits</title>
  </rect>
  <rect x="124" y="25" width="11" height="11" rx="2" fill="#161b22">
    <title>Apr 13, 2025: No commits</title>
  </rect>
  <rect x="124" y="39" width="11" height="11" rx="2" fill="#161b22">
    <title>Apr 14, 2025: No commits</title>
  </rect>
  <rect x="124" y="53" width="11" height="11" rx="2" fill="#161b22">
    <title>Apr 15, 2025: No commits</title>
  </rect>
  <rect x="124" y="67" width="11" height="11" rx="2" fill="#161b22">
    <title>Apr 16, 2025: No commits</title>
  </rect>
  <rect x="124" y="81" width="11" height="11" rx="2" fill="#161b22">
    <title>Apr 17, 2025: No commits</title>
  </rect>
  <rect x="124" y="95" width="11" height="11" rx="2" fill="#161b22">
    <title>Apr 18, 2025: No commits</title>
  </rect>
  <rect x="124" y="109" width="11" height="11" rx="2" fill="#161b22">
    <title>Apr 19, 2025: No commits</title>
  </rect>
  <rect x="138" y="25" width="11" height="11" rx="2" fill="#161b22">
    <title>Apr 20, 2025: No commits</title>
  </rect>
  <rect x="138" y="39" width="11" height="11" rx="2" fill="#161b22">
    <title>Apr 21, 2025: No commits</title>
  </rect>
  <rect x="138" y="53" width="11" height="11" rx="2" fill="#161b22">
    <title>Apr 22, 2025: No commits</title>
  </rect>
  <rect x="138" y="67" width="11" height="11" rx="2" fill="#161b22">
    <title>Apr 23, 2025: No commits</title>
  </rect>
  <rect x="138" y="81" width="11" height="11" rx="2" fill="#161b22">
    <title>Apr 24, 2025: No commits</title>
  </rect>
  <rect x="138" y="95" width="11" height="11" rx="2" fill="#161b22">
    <title>Apr 25, 2025: No commits</title>
  </rect>
  <rect x="138" y="109" width="11" height="11" rx="2" fill="#161b22">
    <title>Apr 26, 2025: No commits</title>
  </rect>
  <rect x="152" y="25" width="11" height="11" rx="2" fill="#161b22">
    <title>Apr 27, 2025: No commits</title>
  </rect>
  <rect x="152" y="39" width="11" height="11" rx="2" fill="#161b22">
    <title>Apr 28, 2025: No commits</title>
  </rect>
  <rect x="152" y="53" width="11" height="11" rx="2" fill="#161b22">
    <title>Apr 29, 2025: No commits</title>
  </rect>
  <rect x="152" y="67" width="11" height="11" rx="2" fill="#161b22">
    <title>Apr 30, 2025: No commits</title>
  </rect>
  <rect x="152" y="81" width="11" height="11" rx="2" fill="#161b22">
    <title>May 01, 2025: No commits</title>
  </rect>
  <rect x="152" y="95" width="11" height="11" rx="2" fill="#161b22">
    <title>May 02, 2025: No commits</title>
  </rect>
  <rect x="152" y="109" width="11" height="11" rx="2" fill="#161b22">
    <title>May 03, 2025: No commits</title>
  </rect>
  <rect x="166" y="25" width="11" height="11" rx="2" fill="#161b22">
    <title>May 04, 2025: No commits</title>
  </rect>
  <rect x="166" y="39" width="11" height="11" rx="2" fill="#161b22">
    <title>May 05, 2025: No commits</title>
  </rect>
  <rect x="166" y="53" width="11" height="11" rx="2" fill="#161b22">
    <title>May 06, 2025: No commits</title>
  </rect>
  <rect x="166" y="67" width="11" height="11" rx="2" fill="#161b22">
    <title>May 07, 2025: No commits</title>
  </rect>
  <rect x="166" y="81" width="11" height="11" rx="2" fill="#161b22">
    <title>May 08, 2025: No commits</title>
  </rect>
  <rect x="166" y="95" width="11" height="11" rx="2" fill="#161b22">
    <title>May 09, 2025: No commits</title>
  </rect>
  <rect x="166" y="109" width="11" height="11" rx="2" fill="#161b22">
    <title>May 10, 2025: No commits</title>
  </rect>
  <rect x="180" y="25" width="11" height="11" rx="2" fill="#161b22">
    <title>May 11, 2025: No commits</title>
  </rect>
  <rect x="180" y="39" width="11" height="11" rx="2" fill="#161b22">
    <title>May 12, 2025: No commits</title>
  </rect>
  <rect x="180" y="53" width="11" height="11" rx="2" fill="#161b22">
    <title>May 13, 2025: No commits</title>
  </rect>
  <rect x="180" y="67" width="11" height="11" rx="2" fill="#161b22">
    <title>May 14, 2025: No commits</title>
  </rect>
  <rect x="180" y="81" width="11" height="11" rx="2" fill="#161b22">
    <title>May 15, 2025: No commits</title>
  </rect>
  <rect x="180" y="95" width="11" height="11" rx="2" fill="#161b22">
    <title>May 16, 2025: No commits</title>
  </rect>
  <rect x="180" y="109" width="11" height="11" rx="2" fill="#161b22">
    <title>May 17, 2025: No commits</title>
  </rect>
  <rect x="194" y="25" width="11" height="11" rx="2" fill="#161b22">
    <title>May 18, 2025: No commits</title>
  </rect>
  <rect x="194" y="39" width="11" height="11" rx="2" fill="#161b22">
    <title>May 19, 2025: No commits</title>
  </rect>
  <rect x="194" y="53" width="11" height="11" rx="2" fill="#161b22">
    <title>May 20, 2025: No commits</title>
  </rect>
  <rect x="194" y="67" width="11" height="11" rx="2" fill="#161b22">
    <title>May 21, 2025: No commits</title>
  </rect>
  <rect x="194" y="81" width="11" height="11" rx="2" fill="#161b22">
    <title>May 22, 2025: No commits</title>
  </rect>
  <rect x="194" y="95" width="11" height="11" rx="2" fill="#161b22">
    <title>May 23, 2025: No commits</title>
  </rect>
  <rect x="194" y="109" width="11" height="11" rx="2" fill="#161b22">
    <title>May 24, 2025: No commits</title>
  </rect>
  <rect x="208" y="25" width="11" height="11" rx="2" fill="#161b22">
    <title>May 25, 2025: No commits</title>
  </rect>
  <rect x="208" y="39" width="11" height="11" rx="2" fill="#161b22">
    <title>May 26, 2025: No commits</title>
  </rect>
  <rect x="208" y="53" width="11" height="11" rx="2" fill="#161b22">
    <title>May 27, 2025: No commits</title>
  </rect>
  <rect x="208" y="67" width="11" height="11" rx="2" fill="#161b22">
    <title>May 28, 2025: No commits</title>
  </rect>
  <rect x="208" y="81" width="11" height="11" rx="2" fill="#161b22">
    <title>May 29, 2025: No commits</title>
  </rect>
  <rect x="208" y="95" width="11" height="11" rx="2" fill="#161b22">
    <title>May 30, 2025: No commits</title>
  </rect>
  <rect x="208" y="109" width="11" height="11" rx="2" fill="#161b22">
    <title>May 31, 2025: No commits</title>
  </rect>
  <rect x="222" y="25" width="11" height="11" rx="2" fill="#161b22">
    <title>Jun 01, 2025: No commits</title>
  </rect>
  <rect x="222" y="39" width="11" height="11" rx="2" fill="#161b22">
    <title>Jun 02, 2025: No commits</title>
  </rect>
  <rect x="222" y="53" width="11" height="11" rx="2" fill="#161b22">
    <title>Jun 03, 2025: No commits</title>
  </rect>
  <rect x="222" y="67" width="11" height="11" rx="2" fill="#161b22">
    <title>Jun 04, 2025: No commits</title>
  </rect>
  <rect x="222" y="81" width="11" height="11" rx="2" fill="#161b22">
    <title>Jun 05, 2025: No commits</title>
  </rect>
  <rect x="222" y="95" width="11" height="11" rx="2" fill="#161b22">
    <title>Jun 06, 2025: No commits</title>
  </rect>
  <rect x="222" y="109" width="11" height="11" rx="2" fill="#161b22">
    <title>Jun 07, 2025: No commits</title>
  </rect>
  <rect x="236" y="25" width="11" height="11" rx="2" fill="#161b22">
    <title>Jun 08, 2025: No commits</title>
  </rect>
  <rect x="236" y="39" width="11" height="11" rx="2" fill="#161b22">
    <title>Jun 09, 2025: No commits</title>
  </rect>
  <rect x="236" y="53" width="11" height="11" rx="2" fill="#161b22">
    <title>Jun 10, 2025: No commits</title>
  </rect>
  <rect x="236" y="67" width="11" height="11" rx="2" fill="#161b22">
    <title>Jun 11, 2025: No commits</title>
  </rect>
  <rect x="236" y="81" width="11" height="11" rx="2" fill="#161b22">
    <title>Jun 12, 2025: No commits</title>
  </rect>
  <rect x="236" y="95" width="11" height="11" rx="2" fill="#161b22">
    <title>Jun 13, 2025: No commits</title>
  </rect>
  <rect x="236" y="109" width="11" height="11" rx="2" fill="#161b22">
    <title>Jun 14, 2025: No commits</title>
  </rect>
  <rect x="250" y="25" width="11" height="11" rx="2" fill="#161b22">
    <title>Jun 15, 2025: No commits</title>
  </rect>
  <rect x="250" y="39" width="11" height="11" rx="2" fill="#161b22">
    <title>Jun 16, 2025: No commits</title>
  </rect>
  <rect x="250" y="53" width="11" height="11" rx="2" fill="#161b22">
    <title>Jun 17, 2025: No commits</title>
  </rect>
  <rect x="250" y="67" width="11" height="11" rx="2" fill="#161b22">
    <title>Jun 18, 2025: No commits</title>
  </rect>
  <rect x="250" y="81" width="11" height="11" rx="2" fill="#161b22">
    <title>Jun 19, 2025: No commits</title>
  </rect>
  <rect x="250" y="95" width="11" height="11" rx="2" fill="#161b22">
    <title>Jun 20, 2025: No commits</title>
  </rect>
  <rect x="250" y="109" width="11" height="11" rx="2" fill="#161b22">
    <title>Jun 21, 2025: No commits</title>
  </rect>
  <rect x="264" y="25" width="11" height="11" rx="2" fill="#161b22">
    <title>Jun 22, 2025: No commits</title>
  </rect>
  <rect x="264" y="39" width="11" height="11" rx="2" fill="#161b22">
    <title>Jun 23, 2025: No commits</title>
  </rect>
  <rect x="264" y="53" width="11" height="11" rx="2" fill="#161b22">
    <title>Jun 24, 2025: No commits</title>
  </rect>
  <rect x="264" y="67" width="11" height="11" rx="2" fill="#161b22">
    <title>Jun 25, 2025: No commits</title>
  </rect>
  <rect x="264" y="81" width="11" height="11" rx="2" fill="#161b22">
    <title>Jun 26, 2025: No commits</title>
  </rect>
  <rect x="264" y="95" width="11" height="11" rx="2" fill="#161b22">
    <title>Jun 27, 2025: No commits</title>
  </rect>
  <rect x="264" y="109" width="11" height="11" rx="2" fill="#161b22">
    <title>Jun 28, 2025: No commits</title>
  </rect>
  <rect x="278" y="25" width="11" height="11" rx="2" fill="#161b22">
    <title>Jun 29, 2025: No commits</title>
  </rect>
  <rect x="278" y="39" width="11" height="11" rx="2" fill="#161b22">
    <title>Jun 30, 2025: No commits</title>
  </rect>
  <rect x="278" y="53" width="11" height="11" rx="2" fill="#161b22">
    <title>Jul 01, 2025: No commits</title>
  </rect>
  <rect x="278" y="67" width="11" height="11" rx="2" fill="#161b22">
    <title>Jul 02, 2025: No commits</title>
  </rect>
  <rect x="278" y="81" width="11" height="11" rx="2" fill="#161b22">
    <title>Jul 03, 2025: No commits</title>
  </rect>
  <rect x="278" y="95" width="11" height="11" rx="2" fill="#161b22">
    <title>Jul 04, 2025: No commits</title>
  </rect>
  <rect x="278" y="109" width="11" height="11" rx="2" fill="#161b22">
    <title>Jul 05, 2025: No commits</title>
  </rect>
  <rect x="292" y="25" width="11" height="11" rx="2" fill="#161b22">
    <title>Jul 06, 2025: No commits</title>
  </rect>
  <rect x="292" y="39" width="11" height="11" rx="2" fill="#161b22">
    <title>Jul 07, 2025: No commits</title>
  </rect>
  <rect x="292" y="53" width="11" height="11" rx="2" fill="#161b22">
    <title>Jul 08, 2025: No commits</title>
  </rect>
  <rect x="292" y="67" width="11" height="11" rx="2" fill="#161b22">
    <title>Jul 09, 2025: No commits</title>
  </rect>
  <rect x="292" y="81" width="11" height="11" rx="2" fill="#161b22">
    <title>Jul 10, 2025: No commits</title>
  </rect>
  <rect x="292" y="95" width="11" height="11" rx="2" fill="#161b22">
    <title>Jul 11, 2025: No commits</title>
  </rect>
  <rect x="292" y="109" width="11" height="11" rx="2" fill="#161b22">
    <title>Jul 12, 2025: No commits</title>
  </rect>
  <rect x="306" y="25" width="11" height="11" rx="2" fill="#161b22">
    <title>Jul 13, 2025: No commits</title>
  </rect>
  <rect x="306" y="39" width="11" height="11" rx="2" fill="#161b22">
    <title>Jul 14, 2025: No commits</title>
  </rect>
  <rect x="306" y="53" width="11" height="11" rx="2" fill="#161b22">
    <title>Jul 15, 2025: No commits</title>
  </rect>
  <rect x="306" y="67" width="11" height="11" rx="2" fill="#161b22">
    <title>Jul 16, 2025: No commits</title>
  </rect>
  <rect x="306" y="81" width="11" height="11" rx="2" fill="#161b22">
    <title>Jul 17, 2025: No commits</title>
  </rect>
  <rect x="306" y="95" width="11" height="11" rx="2" fill="#161b22">
    <title>Jul 18, 2025: No commits</title>
  </rect>
  <rect x="306" y="109" width="11" height="11" rx="2" fill="#161b22">
    <title>Jul 19, 2025: No commits</title>
  </rect>
  <rect x="320" y="25" width="11" height="11" rx="2" fill="#161b22">
    <title>Jul 20, 2025: No commits</title>
  </rect>
  <rect x="320" y="39" width="11" height="11" rx="2" fill="#161b22">
    <title>Jul 21, 2025: No commits</title>
  </rect>
  <rect x="320" y="53" width="11" height="11" rx="2" fill="#161b22">
    <title>Jul 22, 2025: No commits</title>
  </rect>
  <rect x="320" y="67" width="11" height="11" rx="2" fill="#161b22">
    <title>Jul 23, 2025: No commits</title>
  </rect>
  <rect x="320" y="81" width="11" height="11" rx="2" fill="#161b22">
    <title>Jul 24, 2025: No commits</title>
  </rect>
  <rect x="320" y="95" width="11" height="11" rx="2" fill="#161b22">
    <title>Jul 25, 2025: No commits</title>
  </rect>
  <rect x="320" y="109" width="11" height="11" rx="2" fill="#161b22">
    <title>Jul 26, 2025: No commits</title>
  </rect>
  <rect x="334" y="25" width="11" height="11" rx="2" fill="#161b22">
    <title>Jul 27, 2025: No commits</title>
  </rect>
  <rect x="334" y="39" width="11" height="11" rx="2" fill="#161b22">
    <title>Jul 28, 2025: No commits</title>
  </rect>
  <rect x="334" y="53" width="11" height="11" rx="2" fill="#161b22">
    <title>Jul 29, 2025: No commits</title>
  </rect>
  <rect x="334" y="67" width="11" height="11" rx="2" fill="#161b22">
    <title>Jul 30, 2025: No commits</title>
  </rect>
  <rect x="334" y="81" width="11" height="11" rx="2" fill="#161b22">
    <title>Jul 31, 2025: No commits</title>
  </rect>
  <rect x="334" y="95" width="11" height="11" rx="2" fill="#161b22">
    <title>Aug 01, 2025: No commits</title>
  </rect>
  <rect x="334" y="109" width="11" height="11" rx="2" fill="#161b22">
    <title>Aug 02, 2025: No commits</title>
  </rect>
  <rect x="348" y="25" width="11" height="11" rx="2" fill="#161b22">
    <title>Aug 03, 2025: No commits</title>
  </rect>
  <rect x="348" y="39" width="11" height="11" rx="2" fill="#161b22">
    <title>Aug 04, 2025: No commits</title>
  </rect>
  <rect x="348" y="53" width="11" height="11" rx="2" fill="#161b22">
    <title>Aug 05, 2025: No commits</title>
  </rect>
  <rect x="348" y="67" width="11" height="11" rx="2" fill="#161b22">
    <title>Aug 06, 2025: No commits</title>
  </rect>
  <rect x="348" y="81" width="11" height="11" rx="2" fill="#161b22">
    <title>Aug 07, 2025: No commits</title>
  </rect>
  <rect x="348" y="95" width="11" height="11" rx="2" fill="#161b22">
    <title>Aug 08, 2025: No commits</title>
  </rect>
  <rect x="348" y="109" width="11" height="11" rx="2" fill="#161b22">
    <title>Aug 09, 2025: No commits</title>
  </rect>
  <rect x="362" y="25" width="11" height="11" rx="2" fill="#161b22">
    <title>Aug 10, 2025: No commits</title>
  </rect>
  <rect x="362" y="39" width="11" height="11" rx="2" fill="#161b22">
    <title>Aug 11, 2025: No commits</title>
  </rect>
  <rect x="362" y="53" width="11" height="11" rx="2" fill="#161b22">
    <title>Aug 12, 2025: No commits</title>
  </rect>
  <rect x="362" y="67" width="11" height="11" rx="2" fill="#161b22">
    <title>Aug 13, 2025: No commits</title>
  </rect>
  <rect x="362" y="81" width="11" height="11" rx="2" fill="#161b22">
    <title>Aug 14, 2025: No commits</title>
  </rect>
  <rect x="362" y="95" width="11" height="11" rx="2" fill="#161b22">
    <title>Aug 15, 2025: No commits</title>
  </rect>
  <rect x="362" y="109" width="11" height="11" rx="2" fill="#161b22">
    <title>Aug 16, 2025: No commits</title>
  </rect>
  <rect x="376" y="25" width="11" height="11" rx="2" fill="#161b22">
    <title>Aug 17, 2025: No commits</title>
  </rect>
  <rect x="376" y="39" width="11" height="11" rx="2" fill="#161b22">
    <title>Aug 18, 2025: No commits</title>
  </rect>
  <rect x="376" y="53" width="11" height="11" rx="2" fill="#161b22">
    <title>Aug 19, 2025: No commits</title>
  </rect>
  <rect x="376" y="67" width="11" height="11" rx="2" fill="#161b22">
    <title>Aug 20, 2025: No commits</title>
  </rect>
  <rect x="376" y="81" width="11" height="11" rx="2" fill="#161b22">
    <title>Aug 21, 2025: No commits</title>
  </rect>
  <rect x="376" y="95" width="11" height="11" rx="2" fill="#161b22">
    <title>Aug 22, 2025: No commits</title>
  </rect>
  <rect x="376" y="109" width="11" height="11" rx="2" fill="#161b22">
    <title>Aug 23, 2025: No commits</title>
  </rect>
  <rect x="390" y="25" width="11" height="11" rx="2" fill="#161b22">
    <title>Aug 24, 2025: No commits</title>
  </rect>
  <rect x="390" y="39" width="11" height="11" rx="2" fill="#161b22">
    <title>Aug 25, 2025: No commits</title>
  </rect>
  <rect x="390" y="53" width="11" height="11" rx="2" fill="#161b22">
    <title>Aug 26, 2025: No commits</title>
  </rect>
  <rect x="390" y="67" width="11" height="11" rx="2" fill="#161b22">
    <title>Aug 27, 2025: No commits</title>
  </rect>
  <rect x="390" y="81" width="11" height="11" rx="2" fill="#161b22">
    <title>Aug 28, 2025: No commits</title>
  </rect>
  <rect x="390" y="95" width="11" height="11" rx="2" fill="#161b22">
    <title>Aug 29, 2025: No commits</title>
  </rect>
  <rect x="390" y="109" width="11" height="11" rx="2" fill="#161b22">
    <title>Aug 30, 2025: No commits</title>
  </rect>
  <rect x="404" y="25" width="11" height="11" rx="2" fill="#161b22">
    <title>Aug 31, 2025: No commits</title>
  </rect>
  <rect x="404" y="39" width="11" height="11" rx="2" fill="#161b22">
    <title>Sep 01, 2025: No commits</title>
  </rect>
  <rect x="404" y="53" width="11" height="11" rx="2" fill="#161b22">
    <title>Sep 02, 2025: No commits</title>
  </rect>
  <rect x="404" y="67" width="11" height="11" rx="2" fill="#161b22">
    <title>Sep 03, 2025: No commits</title>
  </rect>
  <rect x="404" y="81" width="11" height="11" rx="2" fill="#161b22">
    <title>Sep 04, 2025: No commits</title>
  </rect>
  <rect x="404" y="95" width="11" height="11" rx="2" fill="#161b22">
    <title>Sep 05, 2025: No commits</title>
  </rect>
  <rect x="404" y="109" width="11" height="11" rx="2" fill="#161b22">
    <title>Sep 06, 2025: No commits</title>
  </rect>
  <rect x="418" y="25" width="11" height="11" rx="2" fill="#161b22">
    <title>Sep 07, 2025: No commits</title>
  </rect>
  <rect x="418" y="39" width="11" height="11" rx="2" fill="#161b22">
    <title>Sep 08, 2025: No commits</title>
  </rect>
  <rect x="418" y="53" width="11" height="11" rx="2" fill="#161b22">
    <title>Sep 09, 2025: No commits</title>
  </rect>
  <rect x="418" y="67" width="11" height="11" rx="2" fill="#161b22">
    <title>Sep 10, 2025: No commits</title>
  </rect>
  <rect x="418" y="81" width="11" height="11" rx="2" fill="#161b22">
    <title>Sep 11, 2025: No commits</title>
  </rect>
  <rect x="418" y="95" width="11" height="11" rx="2" fill="#161b22">
    <title>Sep 12, 2025: No commits</title>
  </rect>
  <rect x="418" y="109" width="11" height="11" rx="2" fill="#161b22">
    <title>Sep 13, 2025: No commits</title>
  </rect>
  <rect x="432" y="25" width="11" height="11" rx="2" fill="#161b22">
    <title>Sep 14, 2025: No commits</title>
  </rect>
  <rect x="432" y="39" width="11" height="11" rx="2" fill="#161b22">
    <title>Sep 15, 2025: No commits</title>
  </rect>
  <rect x="432" y="53" width="11" height="11" rx="2" fill="#161b22">
    <title>Sep 16, 2025: No commits</title>
  </rect>
  <rect x="432" y="67" width="11" height="11" rx="2" fill="#161b22">
    <title>Sep 17, 2025: No commits</title>
  </rect>
  <rect x="432" y="81" width="11" height="11" rx="2" fill="#161b22">
    <title>Sep 18, 2025: No commits</title>
  </rect>
  <rect x="432" y="95" width="11" height="11" rx="2" fill="#161b22">
    <title>Sep 19, 2025: No commits</title>
  </rect>
  <rect x="432" y="109" width="11" height="11" rx="2" fill="#161b22">
    <title>Sep 20, 2025: No commits</title>
  </rect>
  <rect x="446" y="25" width="11" height="11" rx="2" fill="#161b22">
    <title>Sep 21, 2025: No commits</title>
  </rect>
  <rect x="446" y="39" width="11" height="11" rx="2" fill="#161b22">
    <title>Sep 22, 2025: No commits</title>
  </rect>
  <rect x="446" y="53" width="11" height="11" rx="2" fill="#161b22">
    <title>Sep 23, 2025: No commits</title>
  </rect>
  <rect x="446" y="67" width="11" height="11" rx="2" fill="#161b22">
    <title>Sep 24, 2025: No commits</title>
  </rect>
  <rect x="446" y="81" width="11" height="11" rx="2" fill="#161b22">
    <title>Sep 25, 2025: No commits</title>
  </rect>
  <rect x="446" y="95" width="11" height="11" rx="2" fill="#161b22">
    <title>Sep 26, 2025: No commits</title>
  </rect>
  <rect x="446" y="109" width="11" height="11" rx="2" fill="#161b22">
    <title>Sep 27, 2025: No commits</title>
  </rect>
  <rect x="460" y="25" width="11" height="11" rx="2" fill="#161b22">
    <title>Sep 28, 2025: No commits</title>
  </rect>
  <rect x="460" y="39" width="11" height="11" rx="2" fill="#161b22">
    <title>Sep 29, 2025: No commits</title>
  </rect>
  <rect x="460" y="53" width="11" height="11" rx="2" fill="#161b22">
    <title>Sep 30, 2025: No commits</title>
  </rect>
  <rect x="460" y="67" width="11" height="11" rx="2" fill="#161b22">
    <title>Oct 01, 2025: No commits</title>
  </rect>
  <rect x="460" y="81" width="11" height="11" rx="2" fill="#161b22">
    <title>Oct 02, 2025: No commits</title>
  </rect>
  <rect x="460" y="95" width="11" height="11" rx="2" fill="#161b22">
    <title>Oct 03, 2025: No commits</title>
  </rect>
  <rect x="460" y="109" width="11" height="11" rx="2" fill="#161b22">
    <title>Oct 04, 2025: No commits</title>
  </rect>
  <rect x="474" y="25" width="11" height="11" rx="2" fill="#161b22">
    <title>Oct 05, 2025: No commits</title>
  </rect>
  <rect x="474" y="39" width="11" height="11" rx="2" fill="#161b22">
    <title>Oct 06, 2025: No commits</title>
  </rect>
  <rect x="474" y="53" width="11" height="11" rx="2" fill="#161b22">
    <title>Oct 07, 2025: No commits</title>
  </rect>
  <rect x="474" y="67" width="11" height="11" rx="2" fill="#161b22">
    <title>Oct 08, 2025: No commits</title>
  </rect>
  <rect x="474" y="81" width="11" height="11" rx="2" fill="#161b22">
    <title>Oct 09, 2025: No commits</title>
  </rect>
  <rect x="474" y="95" width="11" height="11" rx="2" fill="#161b22">
    <title>Oct 10, 2025: No commits</title>
  </rect>
  <rect x="474" y="109" width="11" height="11" rx="2" fill="#161b22">
    <title>Oct 11, 2025: No commits</title>
  </rect>
  <rect x="488" y="25" width="11" height="11" rx="2" fill="#161b22">
    <title>Oct 12, 2025: No commits</title>
  </rect>
  <rect x="488" y="39" width="11" height="11" rx="2" fill="#161b22">
    <title>Oct 13, 2025: No commits</title>
  </rect>
  <rect x="488" y="53" width="11" height="11" rx="2" fill="#161b22">
    <title>Oct 14, 2025: No commits</title>
  </rect>
  <rect x="488" y="67" width="11" height="11" rx="2" fill="#161b22">
    <title>Oct 15, 2025: No commits</title>
  </rect>
  <rect x="488" y="81" width="11" height="11" rx="2" fill="#161b22">
    <title>Oct 16, 2025: No commits</title>
  </rect>
  <rect x="488" y="95" width="11" height="11" rx="2" fill="#161b22">
    <title>Oct 17, 2025: No commits</title>
  </rect>
  <rect x="488" y="109" width="11" height="11" rx="2" fill="#161b22">
    <title>Oct 18, 2025: No commits</title>
  </rect>
  <rect x="502" y="25" width="11" height="11" rx="2" fill="#161b22">
    <title>Oct 19, 2025: No commits</title>
  </rect>
  <rect x="502" y="39" width="11" height="11" rx="2" fill="#161b22">
    <title>Oct 20, 2025: No commits</title>
  </rect>
  <rect x="502" y="53" width="11" height="11" rx="2" fill="#161b22">
    <title>Oct 21, 2025: No commits</title>
  </rect>
  <rect x="502" y="67" width="11" height="11" rx="2" fill="#161b22">
    <title>Oct 22, 2025: No commits</title>
  </rect>
  <rect x="502" y="81" width="11" height="11" rx="2" fill="#161b22">
    <title>Oct 23, 2025: No commits</title>
  </rect>
  <rect x="502" y="95" width="11" height="11" rx="2" fill="#161b22">
    <title>Oct 24, 2025: No commits</title>
  </rect>
  <rect x="502" y="109" width="11" height="11" rx="2" fill="#161b22">
    <title>Oct 25, 2025: No commits</title>
  </rect>
  <rect x="516" y="25" width="11" height="11" rx="2" fill="#161b22">
    <title>Oct 26, 2025: No commits</title>
  </rect>
  <rect x="516" y="39" width="11" height="11" rx="2" fill="#161b22">
    <title>Oct 27, 2025: No commits</title>
  </rect>
  <rect x="516" y="53" width="11" height="11" rx="2" fill="#161b22">
    <title>Oct 28, 2025: No commits</title>
  </rect>
  <rect x="516" y="67" width="11" height="11" rx="2" fill="#161b22">
    <title>Oct 29, 2025: No commits</title>
  </rect>
  <rect x="516" y="81" width="11" height="11" rx="2" fill="#161b22">
    <title>Oct 30, 2025: No commits</title>
  </rect>
  <rect x="516" y="95" width="11" height="11" rx="2" fill="#161b22">
    <title>Oct 31, 2025: No commits</title>
  </rect>
  <rect x="516" y="109" width="11" height="11" rx="2" fill="#161b22">
    <title>Nov 01, 2025: No commits</title>
  </rect>
  <rect x="530" y="25" width="11" height="11" rx="2" fill="#161b22">
    <title>Nov 02, 2025: No commits</title>
  </rect>
  <rect x="530" y="39" width="11" height="11" rx="2" fill="#161b22">
    <title>Nov 03, 2025: No commits</title>
  </rect>
  <rect x="530" y="53" width="11" height="11" rx="2" fill="#161b22">
    <title>Nov 04, 2025: No commits</title>
  </rect>
  <rect x="530" y="67" width="11" height="11" rx="2" fill="#161b22">
    <title>Nov 05, 2025: No commits</title>
  </rect>
  <rect x="530" y="81" width="11" height="11" rx="2" fill="#161b22">
    <title>Nov 06, 2025: No commits</title>
  </rect>
  <rect x="530" y="95" width="11" height="11" rx="2" fill="#161b22">
    <title>Nov 07, 2025: No commits</title>
  </rect>
  <rect x="530" y="109" width="11" height="11" rx="2" fill="#161b22">
    <title>Nov 08, 2025: No commits</title>
  </rect>
  <rect x="544" y="25" width="11" height="11" rx="2" fill="#161b22">
    <title>Nov 09, 2025: No commits</title>
  </rect>
  <rect x="544" y="39" width="11" height="11" rx="2" fill="#161b22">
    <title>Nov 10, 2025: No commits</title>
  </rect>
  <rect x="544" y="53" width="11" height="11" rx="2" fill="#161b22">
    <title>Nov 11, 2025: No commits</title>
  </rect>
  <rect x="544" y="67" width="11" height="11" rx="2" fill="#161b22">
    <title>Nov 12, 2025: No commits</title>
  </rect>
  <rect x="544" y="81" width="11" height="11" rx="2" fill="#161b22">
    <title>Nov 13, 2025: No commits</title>
  </rect>
  <rect x="544" y="95" width="11" height="11" rx="2" fill="#161b22">
    <title>Nov 14, 2025: No commits</title>
  </rect>
  <rect x="544" y="109" width="11" height="11" rx="2" fill="#161b22">
    <title>Nov 15, 2025: No commits</title>
  </rect>
  <rect x="558" y="25" width="11" height="11" rx="2" fill="#161b22">
    <title>Nov 16, 2025: No commits</title>
  </rect>
  <rect x="558" y="39" width="11" height="11" rx="2" fill="#161b22">
    <title>Nov 17, 2025: No commits</title>
  </rect>
  <rect x="558" y="53" width="11" height="11" rx="2" fill="#161b22">
    <title>Nov 18, 2025: No commits</title>
  </rect>
  <rect x="558" y="67" width="11" height="11" rx="2" fill="#161b22">
    <title>Nov 19, 2025: No commits</title>
  </rect>
  <rect x="558" y="81" width="11" height="11" rx="2" fill="#161b22">
    <title>Nov 20, 2025: No commits</title>
  </rect>
  <rect x="558" y="95" width="11" height="11" rx="2" fill="#161b22">
    <title>Nov 21, 2025: No commits</title>
  </rect>
  <rect x="558" y="109" width="11" height="11" rx="2" fill="#161b22">
    <title>Nov 22, 2025: No commits</title>
  </rect>
  <rect x="572" y="25" width="11" height="11" rx="2" fill="#161b22">
    <title>Nov 23, 2025: No commits</title>
  </rect>
  <rect x="572" y="39" width="11" height="11" rx="2" fill="#161b22">
    <title>Nov 24, 2025: No commits</title>
  </rect>
  <rect x="572" y="53" width="11" height="11" rx="2" fill="#161b22">
    <title>Nov 25, 2025: No commits</title>
  </rect>
  <rect x="572" y="67" width="11" height="11" rx="2" fill="#161b22">
    <title>Nov 26, 2025: No commits</title>
  </rect>
  <rect x="572" y="81" width="11" height="11" rx="2" fill="#161b22">
    <title>Nov 27, 2025: No commits</title>
  </rect>
  <rect x="572" y="95" width="11" height="11" rx="2" fill="#161b22">
    <title>Nov 28, 2025: No commits</title>
  </rect>
  <rect x="572" y="109" width="11" height="11" rx="2" fill="#161b22">
    <title>Nov 29, 2025: No commits</title>
  </rect>
  <rect x="586" y="25" width="11" height="11" rx="2" fill="#161b22">
    <title>Nov 30, 2025: No commits</title>
  </rect>
  <rect x="586" y="39" width="11" height="11" rx="2" fill="#161b22">
    <title>Dec 01, 2025: No commits</title>
  </rect>
  <rect x="586" y="53" width="11" height="11" rx="2" fill="#161b22">
    <title>Dec 02, 2025: No commits</title>
  </rect>
  <rect x="586" y="67" width="11" height="11" rx="2" fill="#161b22">
    <title>Dec 03, 2025: No commits</title>
  </rect>
  <rect x="586" y="81" width="11" height="11" rx="2" fill="#161b22">
    <title>Dec 04, 2025: No commits</title>
  </rect>
  <rect x="586" y="95" width="11" height="11" rx="2" fill="#161b22">
    <title>Dec 05, 2025: No commits</title>
  </rect>
  <rect x="586" y="109" width="11" height="11" rx="2" fill="#161b22">
    <title>Dec 06, 2025: No commits</title>
  </rect>
  <rect x="600" y="25" width="11" height="11" rx="2" fill="#161b22">
    <title>Dec 07, 2025: No commits</title>
  </rect>
  <rect x="600" y="39" width="11" height="11" rx="2" fill="#161b22">
    <title>Dec 08, 2025: No commits</title>
  </rect>
  <rect x="600" y="53" width="11" height="11" rx="2" fill="#161b22">
    <title>Dec 09, 2025: No commits</title>
  </rect>
  <rect x="600" y="67" width="11" height="11" rx="2" fill="#161b22">
    <title>Dec 10, 2025: No commits</title>
  </rect>
  <rect x="600" y="81" width="11" height="11" rx="2" fill="#161b22">
    <title>Dec 11, 2025: No commits</title>
  </rect>
  <rect x="600" y="95" width="11" height="11" rx="2" fill="#161b22">
    <title>Dec 12, 2025: No commits</title>
  </rect>
  <rect x="600" y="109" width="11" height="11" rx="2" fill="#161b22">
    <title>Dec 13, 2025: No commits</title>
  </rect>
  <rect x="614" y="25" width="11" height="11" rx="2" fill="#161b22">
    <title>Dec 14, 2025: No commits</title>
  </rect>
  <rect x="614" y="39" width="11" height="11" rx="2" fill="#161b22">
    <title>Dec 15, 2025: No commits</title>
  </rect>
  <rect x="614" y="53" width="11" height="11" rx="2" fill="#161b22">
    <title>Dec 16, 2025: No commits</title>
  </rect>
  <rect x="614" y="67" width="11" height="11" rx="2" fill="#161b22">
    <title>Dec 17, 2025: No commits</title>
  </rect>
  <rect x="614" y="81" width="11" height="11" rx="2" fill="#161b22">
    <title>Dec 18, 2025: No commits</title>
  </rect>
  <rect x="614" y="95" width="11" height="11" rx="2" fill="#161b22">
    <title>Dec 19, 2025: No commits</title>
  </rect>
  <rect x="614" y="109" width="11" height="11" rx="2" fill="#161b22">
    <title>Dec 20, 2025: No commits</title>
  </rect>
  <rect x="628" y="25" width="11" height="11" rx="2" fill="#161b22">
    <title>Dec 21, 2025: No commits</title>
  </rect>
  <rect x="628" y="39" width="11" height="11" rx="2" fill="#161b22">
    <title>Dec 22, 2025: No commits</title>
  </rect>
  <rect x="628" y="53" width="11" height="11" rx="2" fill="#161b22">
    <title>Dec 23, 2025: No commits</title>
  </rect>
  <rect x="628" y="67" width="11" height="11" rx="2" fill="#161b22">
    <title>Dec 24, 2025: No commits</title>
  </rect>
  <rect x="628" y="81" width="11" height="11" rx="2" fill="#161b22">
    <title>Dec 25, 2025: No commits</title>
  </rect>
  <rect x="628" y="95" width="11" height="11" rx="2" fill="#161b22">
    <title>Dec 26, 2025: No commits</title>
  </rect>
  <rect x="628" y="109" width="11" height="11" rx="2" fill="#161b22">
    <title>Dec 27, 2025: No commits</title>
  </rect>
  <rect x="642" y="25" width="11" height="11" rx="2" fill="#161b22">
    <title>Dec 28, 2025: No commits</title>
  </rect>
  <rect x="642" y="39" width="11" height="11" rx="2" fill="#161b22">
    <title>Dec 29, 2025: No commits</title>
  </rect>
  <rect x="642" y="53" width="11" height="11" rx="2" fill="#161b22">
    <title>Dec 30, 2025: No commits</title>
  </rect>
  <rect x="642" y="67" width="11" height="11" rx="2" fill="#161b22">
    <title>Dec 31, 2025: No commits</title>
  </rect>
  <rect x="642" y="81" width="11" height="11" rx="2" fill="#161b22">
    <title>Jan 01, 2026: No commits</title>
  </rect>
  <rect x="642" y="95" width="11" height="11" rx="2" fill="#161b22">
    <title>Jan 02, 2026: No commits</title>
  </rect>
  <rect x="642" y="109" width="11" height="11" rx="2" fill="#161b22">
    <title>Jan 03, 2026: No commits</title>
  </rect>
  <rect x="656" y="25" width="11" height="11" rx="2" fill="#161b22">
    <title>Jan 04, 2026: No commits</title>
  </rect>
  <rect x="656" y="39" width="11" height="11" rx="2" fill="#161b22">
    <title>Jan 05, 2026: No commits</title>
  </rect>
  <rect x="656" y="53" width="11" height="11" rx="2" fill="#161b22">
    <title>Jan 06, 2026: No commits</title>
  </rect>
  <rect x="656" y="67" width="11" height="11" rx="2" fill="#161b22">
    <title>Jan 07, 2026: No commits</title>
  </rect>
  <rect x="656" y="81" width="11" height="11" rx="2" fill="#161b22">
    <title>Jan 08, 2026: No commits</title>
  </rect>
  <rect x="656" y="95" width="11" height="11" rx="2" fill="#161b22">
    <title>Jan 09, 2026: No commits</title>
  </rect>
  <rect x="656" y="109" width="11" height="11" rx="2" fill="#161b22">
    <title>Jan 10, 2026: No commits</title>
  </rect>
  <rect x="670" y="25" width="11" height="11" rx="2" fill="#161b22">
    <title>Jan 11, 2026: No commits</title>
  </rect>
  <rect x="670" y="39" width="11" height="11" rx="2" fill="#161b22">
    <title>Jan 12, 2026: No commits</title>
  </rect>
  <rect x="670" y="53" width="11" height="11" rx="2" fill="#161b22">
    <title>Jan 13, 2026: No commits</title>
  </rect>
  <rect x="670" y="67" width="11" height="11" rx="2" fill="#161b22">
    <title>Jan 14, 2026: No commits</title>
  </rect>
  <rect x="670" y="81" width="11" height="11" rx="2" fill="#161b22">
    <title>Jan 15, 2026: No commits</title>
  </rect>
  <rect x="670" y="95" width="11" height="11" rx="2" fill="#161b22">
    <title>Jan 16, 2026: No commits</title>
  </rect>
  <rect x="670" y="109" width="11" height="11" rx="2" fill="#161b22">
    <title>Jan 17, 2026: No commits</title>
  </rect>
  <rect x="684" y="25" width="11" height="11" rx="2" fill="#161b22">
    <title>Jan 18, 2026: No commits</title>
  </rect>
  <rect x="684" y="39" width="11" height="11" rx="2" fill="#161b22">
    <title>Jan 19, 2026: No commits</title>
  </rect>
  <rect x="684" y="53" width="11" height="11" rx="2" fill="#161b22">
    <title>Jan 20, 2026: No commits</title>
  </rect>
  <rect x="684" y="67" width="11" height="11" rx="2" fill="#161b22">
    <title>Jan 21, 2026: No commits</title>
  </rect>
  <rect x="684" y="81" width="11" height="11" rx="2" fill="#161b22">
    <title>Jan 22, 2026: No commits</title>
  </rect>
  <rect x="684" y="95" width="11" height="11" rx="2" fill="#161b22">
    <title>Jan 23, 2026: No commits</title>
  </rect>
  <rect x="684" y="109" width="11" height="11" rx="2" fill="#161b22">
    <title>Jan 24, 2026: No commits</title>
  </rect>
  <rect x="698" y="25" width="11" height="11" rx="2" fill="#161b22">
    <title>Jan 25, 2026: No commits</title>
  </rect>
  <rect x="698" y="39" width="11" height="11" rx="2" fill="#161b22">
    <title>Jan 26, 2026: No commits</title>
  </rect>
  <rect x="698" y="53" width="11" height="11" rx="2" fill="#161b22">
    <title>Jan 27, 2026: No commits</title>
  </rect>
  <rect x="698" y="67" width="11" height="11" rx="2" fill="#161b22">
    <title>Jan 28, 2026: No commits</title>
  </rect>
  <rect x="698" y="81" width="11" height="11" rx="2" fill="#161b22">
    <title>Jan 29, 2026: No commits</title>
  </rect>
  <rect x="698" y="95" width="11" height="11" rx="2" fill="#161b22">
    <title>Jan 30, 2026: No commits</title>
  </rect>
  <rect x="698" y="109" width="11" height="11" rx="2" fill="#161b22">
    <title>Jan 31, 2026: No commits</title>
  </rect>
  <rect x="712" y="25" width="11" height="11" rx="2" fill="#161b22">
    <title>Feb 01, 2026: No commits</title>
  </rect>
  <rect x="712" y="39" width="11" height="11" rx="2" fill="#161b22">
    <title>Feb 02, 2026: No commits</title>
  </rect>
  <rect x="712" y="53" width="11" height="11" rx="2" fill="#161b22">
    <title>Feb 03, 2026: No commits</title>
  </rect>
  <rect x="712" y="67" width="11" height="11" rx="2" fill="#161b22">
    <title>Feb 04, 2026: No commits</title>
  </rect>
  <rect x="712" y="81" width="11" height="11" rx="2" fill="#161b22">
    <title>Feb 05, 2026: No commits</title>
  </rect>
  <rect x="712" y="95" width="11" height="11" rx="2" fill="#161b22">
    <title>Feb 06, 2026: No commits</title>
  </rect>
  <rect x="712" y="109" width="11" height="11" rx="2" fill="#161b22">
    <title>Feb 07, 2026: No commits</title>
  </rect>
  <rect x="726" y="25" width="11" height="11" rx="2" fill="#161b22">
    <title>Feb 08, 2026: No commits</title>
  </rect>
  <rect x="726" y="39" width="11" height="11" rx="2" fill="#161b22">
    <title>Feb 09, 2026: No commits</title>
  </rect>
  <rect x="726" y="53" width="11" height="11" rx="2" fill="#161b22">
    <title>Feb 10, 2026: No commits</title>
  </rect>
  <rect x="726" y="67" width="11" height="11" rx="2" fill="#161b22">
    <title>Feb 11, 2026: No commits</title>
  </rect>
  <rect x="726" y="81" width="11" height="11" rx="2" fill="#161b22">
    <title>Feb 12, 2026: No commits</title>
  </rect>
  <rect x="726" y="95" width="11" height="11" rx="2" fill="#161b22">
    <title>Feb 13, 2026: No commits</title>
  </rect>
  <rect x="726" y="109" width="11" height="11" rx="2" fill="#161b22">
    <title>Feb 14, 2026: No commits</title>
  </rect>
  <rect x="740" y="25" width="11" height="11" rx="2" fill="#161b22">
    <title>Feb 15, 2026: No commits</title>
  </rect>
  <rect x="740" y="39" width="11" height="11" rx="2" fill="#161b22">
    <title>Feb 16, 2026: No commits</title>
  </rect>
  <rect x="740" y="53" width="11" height="11" rx="2" fill="#161b22">
    <title>Feb 17, 2026: No commits</title>
  </rect>
  <rect x="740" y="67" width="11" height="11" rx="2" fill="#161b22">
    <title>Feb 18, 2026: No commits</title>
  </rect>
  <rect x="740" y="81" width="11" height="11" rx="2" fill="#161b22">
    <title>Feb 19, 2026: No commits</title>
  </rect>
  <rect x="740" y="95" width="11" height="11" rx="2" fill="#161b22">
    <title>Feb 20, 2026: No commits</title>
  </rect>
  <rect x="740" y="109" width="11" height="11" rx="2" fill="#161b22">
    <title>Feb 21, 2026: No commits</title>
  </rect>
  <rect x="754" y="25" width="11" height="11" rx="2" fill="#161b22">
    <title>Feb 22, 2026: No commits</title>
  </rect>
  <rect x="754" y="39" width="11" height="11" rx="2" fill="#161b22">
    <title>Feb 23, 2026: No commits</title>
  </rect>
  <rect x="754" y="53" width="11" height="11" rx="2" fill="#161b22">
    <title>Feb 24, 2026: No commits</title>
  </rect>
  <rect x="754" y="67" width="11" height="11" rx="2" fill="#161b22">
    <title>Feb 25, 2026: No commits</title>
  </rect>
  <rect x="754" y="81" width="11" height="11" rx="2" fill="#161b22">
    <title>Feb 26, 2026: No commits</title>
  </rect>
  <rect x="754" y="95" width="11" height="11" rx="2" fill="#161b22">
    <title>Feb 27, 2026: No commits</title>
  </rect>
  <rect x="754" y="109" width="11" height="11" rx="2" fill="#161b22">
    <title>Feb 28, 2026: No commits</title>
  </rect>
  <rect x="768" y="25" width="11" height="11" rx="2" fill="#161b22">
    <title>Mar 01, 2026: No commits</title>
  </rect>
  <rect x="768" y="39" width="11" height="11" rx="2" fill="#39d353">
    <title>Mar 02, 2026: 1 commits</title>
  </rect>
  <text x="40" y="140" fill="#8b949e" font-size="10" font-family="monospace">1 local commits | 1 active days</text>
  <text x="652" y="140" fill="#8b949e" font-size="9" font-family="monospace">Less</text>
  <rect x="682" y="131" width="11" height="11" rx="2" fill="#161b22"/>
  <rect x="695" y="131" width="11" height="11" rx="2" fill="#0e4429"/>
  <rect x="708" y="131" width="11" height="11" rx="2" fill="#006d32"/>
  <rect x="721" y="131" width="11" height="11" rx="2" fill="#26a641"/>
  <rect x="734" y="131" width="11" height="11" rx="2" fill="#39d353"/>
  <text x="749" y="140" fill="#8b949e" font-size="9" font-family="monospace">More</text>
</svg>